<svg id="392b0484-848c-4f1f-a361-b316805da4c2" data-name="Laag 1" xmlns="http://www.w3.org/2000/svg" xmlns:xlink="http://www.w3.org/1999/xlink" viewBox="0 0 215.43 215.43"><defs><radialGradient id="d0efbb1e-bc67-48bf-9c50-e096005e1135" cx="538.15" cy="515.69" r="111.61" gradientTransform="matrix(-0.08, -0.95, -0.95, 0.08, 640.58, 575.5)" gradientUnits="userSpaceOnUse"><stop offset="0.1" stop-color="#0096ae"/><stop offset="0.6" stop-color="#cba331"/><stop offset="1" stop-color="#6ec6d9"/></radialGradient></defs><title>icon</title><path d="M137.58,98.63c-7-11.49-23.62-8.45-36.42-4,0-27.7,36.35-15.81,47.31-6.3,5.92,17.16-2.81,42.81-14.83,52.45-6.38,5.11-21.53,11.71-29.54,11.23-4.54-.28-5.17-4.62-10.45-8.45-3.72-2.71-7.19-2.23-9.39-4.23-2-1.85-3.24-6.24-5.63-8.87-5.47-6-13.73-9.36-18.65-14.94-7.15-8.1-7.37-15.44-2.32-26.45,10-21.71,39.16-50.1,76.05-42.67,4.95,1,9,3.74,13.76,6.72,4.46,2.77,9.46,4.24,13.77,6.72,14.63,8.42,24.91,25.32,23,49.13-1.65,21-14,52.81-26.22,65-21.17,21-66.33,18.66-88.06,8.43-8.43-4-18.15-11.53-25.79-17.2-12.09-9-23.53-22.49-25-39.6-.77-9.22,2.27-20,4.32-29.91,4.18-20.08,6.88-34.12,18.78-47,5-5.47,12.33-10.12,18.09-15.27C69.4,25.29,74.6,19,86.71,16.63c23.54-4.6,49.39-1.52,66.46,6.43,12.14,5.65,19.89,16.72,35.49,17.07-8.78-8.23-13.75-22.2-26-27.27-4.19-1.73-11-2.11-17-4.27C136.08,5.13,125.87.92,113.06.64c-5.37-.12-11.55,1.74-17.22,1.5C89.78,1.89,78.08,5,71.43,8.6c-9.69,5.25-21.84,14.26-32,23-15.19,13.06-22.87,24-27.29,44.89-2,9.33-5.85,20.09-7,30.87-.39,3.66.59,7.38.25,10.79-.35,3.61-2.37,6.33-2.63,9.59-3,38.36,21,51.05,39.05,65.75,5.8,4.72,10.49,10.33,15,12.38,5.24,2.39,16.82,7,22.91,8.08,10,1.74,26.17.56,38.8-.52,15.22-1.29,32.08-5.51,41.31-11.53,12.76-8.33,24.09-36.75,35.8-50.69,10-11.93,19.74-30.07,16.78-54.05-1.22-9.88-5.35-16.2-8.45-25.2-4.12-7.8-13-9.54-20-14.82-5.61-4.21-9.66-10.86-15.14-14.52-2.34-1.56-6.64-1.84-10-3.45-3.17-1.51-5.71-4.45-8.07-5.06-7-1.79-25.73-2.24-34.8-1.27-28.43,3-52.63,21.32-64.34,41.65-2,3.41-3.44,8.78-5.76,13.47-5.14,10.38-8.24,20-1.88,34,.74,1.62,3.1,3.85,4.69,6.08,9.64,13.4,25.17,26.26,34.74,40.18a70.81,70.81,0,0,1,12.58,9c8.63,3.93,13.77.51,22-2.64,15.87-6.12,25.14-6.67,35.11-18.92,4.3-5.29,8.87-14.76,13.27-22.78,7.84-14.28,13-23.32,9.32-44-5.93-9.51-17.19-16.34-29.6-21.18-8.75-3.42-16.77-10.85-31.23-8.08C101.46,62.11,84.31,76.43,78.38,88c-2.77,5.38,7.26,46.73,46.79,40.48C133.21,120.47,135.43,111.72,137.58,98.63Z" style="fill-rule:evenodd;fill:url(#d0efbb1e-bc67-48bf-9c50-e096005e1135)"/></svg>