<svg id="40b3296d-a986-4ad7-a797-1ff8121b2760" data-name="Full Color" xmlns="http://www.w3.org/2000/svg" xmlns:xlink="http://www.w3.org/1999/xlink" viewBox="0 0 160.17 17.85"><defs><radialGradient id="d089a9a2-a86f-4725-9364-49da527282a5" cx="516.56" cy="489.97" r="9.15" gradientTransform="matrix(-0.08, -0.95, -0.95, 0.08, 516.51, 458.25)" gradientUnits="userSpaceOnUse"><stop offset="0.1" stop-color="#0096ae"/><stop offset="0.6" stop-color="#cba331"/><stop offset="1" stop-color="#6ec6d9"/></radialGradient></defs><title>logo</title><path d="M11.31,8.08c-.57-.94-1.94-.69-3-.32,0-2.28,3-1.3,3.88-.52A4.49,4.49,0,0,1,11,11.54a4.81,4.81,0,0,1-2.43.92c-.37,0-.42-.38-.85-.69s-.59-.18-.77-.35-.27-.51-.47-.73C6,10.2,5.35,9.93,4.94,9.47A1.76,1.76,0,0,1,4.75,7.3C5.57,5.52,8,3.19,11,3.8a3.47,3.47,0,0,1,1.13.55c.37.23.78.35,1.13.55a4.06,4.06,0,0,1,1.89,4A10.46,10.46,0,0,1,13,14.26C11.25,16,7.55,15.79,5.77,15a13.23,13.23,0,0,1-2.12-1.41,4.71,4.71,0,0,1-2-3.25A9.37,9.37,0,0,1,2,7.84C2.3,6.19,2.52,5,3.5,4c.41-.45,1-.83,1.48-1.25A4.17,4.17,0,0,1,7.14,1.36a9.46,9.46,0,0,1,5.45.53c1,.46,1.63,1.37,2.91,1.4-.72-.68-1.13-1.82-2.13-2.24C13,.91,12.46.88,12,.7A8,8,0,0,0,9.3.05c-.44,0-1,.14-1.41.12a5.06,5.06,0,0,0-2,.53A16.43,16.43,0,0,0,3.26,2.59,5.92,5.92,0,0,0,1,6.27,23.14,23.14,0,0,0,.45,8.8c0,.3,0,.6,0,.88s-.2.52-.22.79C0,13.62,2,14.66,3.46,15.86a8.5,8.5,0,0,0,1.22,1,11.28,11.28,0,0,0,1.88.66,14.83,14.83,0,0,0,3.18,0,8.18,8.18,0,0,0,3.39-.95c1-.68,2-3,2.94-4.15A5.67,5.67,0,0,0,17.44,8a8.91,8.91,0,0,0-.69-2.06c-.34-.64-1.07-.79-1.64-1.22s-.79-.89-1.24-1.19c-.2-.13-.55-.15-.83-.28s-.46-.37-.66-.42a11.54,11.54,0,0,0-2.85-.1A7.18,7.18,0,0,0,4.25,6.1c-.16.28-.28.72-.47,1.11A2.87,2.87,0,0,0,3.63,10c.06.13.25.31.38.5.79,1.09,2.06,2.15,2.85,3.29a5.38,5.38,0,0,1,1,.74c.71.32,1.13,0,1.8-.22,1.3-.5,2.06-.54,2.88-1.55a14.52,14.52,0,0,0,1.09-1.87,4.63,4.63,0,0,0,.77-3.61A5,5,0,0,0,12,5.54a3.91,3.91,0,0,0-2.56-.66,5.21,5.21,0,0,0-3,2.33,3.28,3.28,0,0,0,3.84,3.32A4,4,0,0,0,11.31,8.08Z" style="fill-rule:evenodd;fill:url(#d089a9a2-a86f-4725-9364-49da527282a5)"/><path d="M36.48,10.53A4.44,4.44,0,0,1,28.11,8.6a4.44,4.44,0,0,1,8.36-2l-1.95.88a2.23,2.23,0,0,0-2-1.19,2.27,2.27,0,0,0,0,4.53,2.22,2.22,0,0,0,2-1.19Z" style="fill:#cba331"/><path d="M43.7,4.27A4.39,4.39,0,0,1,48.12,8.6a4.42,4.42,0,0,1-8.84,0A4.41,4.41,0,0,1,43.7,4.27Zm0,6.59a2.27,2.27,0,0,0,0-4.53,2.27,2.27,0,0,0,0,4.53Z" style="fill:#cba331"/><path d="M55.52,4.43a2.87,2.87,0,0,1,3.12,3.05A2.9,2.9,0,0,1,57,10.24l1.81,2.52H56.25l-1.58-2.23H53.58v2.23H51.45V4.43Zm-1.94,2V8.6H55.4a1,1,0,0,0,1.18-1.1A1,1,0,0,0,55.4,6.38Z" style="fill:#cba331"/><path d="M64.21,4.43v8.33H62.08V4.43Z" style="fill:#cba331"/><path d="M68,12.76V4.43h1.81l3.72,4.66V4.43H75.6v8.33H73.8L70.08,8.12v4.64Z" style="fill:#cba331"/><path d="M84.18,4.43l3.36,8.33H85.21l-.46-1.22H81.48L81,12.76H78.69l3.37-8.33ZM83.12,7.17,82.2,9.61H84Z" style="fill:#cba331"/><path d="M95.53,4.43H99.2a3,3,0,0,1,3.26,3.2,3,3,0,0,1-3.26,3.24H97.66v1.89H95.53Zm2.13,2V8.93h1.42a1.13,1.13,0,0,0,1.23-1.29,1.14,1.14,0,0,0-1.23-1.26Z" style="fill:#cba331"/><path d="M109.87,4.43l3.36,8.33H110.9l-.46-1.22h-3.27l-.46,1.22h-2.33l3.37-8.33Zm-1.06,2.74-.92,2.44h1.83Z" style="fill:#cba331"/><path d="M114.53,4.43h7.32V6.5h-2.59v6.26h-2.14V6.5h-2.59Z" style="fill:#cba331"/><path d="M127.2,4.43v8.33h-2.13V4.43Z" style="fill:#cba331"/><path d="M130.93,12.76V4.43h1.82l3.71,4.66V4.43h2.13v8.33h-1.8l-3.72-4.64v4.64Z" style="fill:#cba331"/><path d="M146.11,7.9h4v4.86h-1.67V12a2.51,2.51,0,0,1-2.11.94,4.39,4.39,0,0,1-4.42-4.32,4.4,4.4,0,0,1,4.42-4.33A4.49,4.49,0,0,1,149.87,6l-1.74,1.18a2.27,2.27,0,1,0-1.79,3.67,2.15,2.15,0,0,0,1.79-.95V9.67h-2Z" style="fill:#cba331"/><path d="M155.4,10.26v.05c0,.33.44.76,1.41.76.8,0,1.06-.26,1.06-.51s-.42-.57-1.42-.91c-1.33-.43-3.07-1.08-3.07-2.79s1.36-2.59,3.26-2.59S160,5.31,160,7v.12H158V7c0-.41-.41-.89-1.28-.89-.72,0-1,.29-1,.57s.38.5,1.37.84c1.16.4,3.12,1.09,3.12,2.91,0,1.63-1.41,2.48-3.31,2.48s-3.53-.93-3.53-2.56v-.1Z" style="fill:#cba331"/></svg>